<mxfile host="app.diagrams.net" modified="2023-07-19T03:30:14.076Z" agent="Mozilla/5.0 (Windows NT 10.0; Win64; x64) AppleWebKit/537.36 (KHTML, like Gecko) Chrome/114.0.0.0 Safari/537.36" version="21.6.3" etag="BLUKDYpSiKxAGMae-b2F" type="github">
  <diagram name="Page-1" id="p7AqGDqLSS3fxnfkDhti">
    <mxGraphModel>
      <root>
        <mxCell id="0" />
        <mxCell id="1" parent="0" />
      </root>
    </mxGraphModel>
  </diagram>
</mxfile>
